<?xml version="1.0" encoding="UTF-8" standalone="no"?>
<!-- Created with Inkscape (http://www.inkscape.org/) -->

<svg
   width="400"
   height="400"
   viewBox="0 0 105.83333 105.83333"
   version="1.1"
   id="svg5"
   xml:space="preserve"
   inkscape:version="1.2.1 (9c6d41e410, 2022-07-14)"
   sodipodi:docname="icon.svg"
   inkscape:export-filename="icon48.png"
   inkscape:export-xdpi="11.52"
   inkscape:export-ydpi="11.52"
   xmlns:inkscape="http://www.inkscape.org/namespaces/inkscape"
   xmlns:sodipodi="http://sodipodi.sourceforge.net/DTD/sodipodi-0.dtd"
   xmlns="http://www.w3.org/2000/svg"
   xmlns:svg="http://www.w3.org/2000/svg"><sodipodi:namedview
     id="namedview7"
     pagecolor="#ffffff"
     bordercolor="#000000"
     borderopacity="0.34117647"
     inkscape:showpageshadow="2"
     inkscape:pageopacity="0"
     inkscape:pagecheckerboard="false"
     inkscape:deskcolor="#d1d1d1"
     inkscape:document-units="mm"
     showgrid="false"
     inkscape:zoom="2.2097881"
     inkscape:cx="227.17111"
     inkscape:cy="254.77557"
     inkscape:window-width="1858"
     inkscape:window-height="1057"
     inkscape:window-x="-8"
     inkscape:window-y="-8"
     inkscape:window-maximized="1"
     inkscape:current-layer="layer1" /><defs
     id="defs2"><style
       id="style9">.cls-1{fill:#f03800;}.cls-2{fill:#ff6c6c;}.cls-3{fill:#cd0000;}.cls-4{fill:#4f575c;}.cls-5{fill:#474f54;}.cls-6{fill:#cbd7f1;}.cls-7{fill:#b1bbe8;}</style><clipPath
       id="a"><path
         d="M 0,0.113 H 91.887 V 92 H 0 Z m 0,0"
         id="path219" /></clipPath></defs><g
     inkscape:label="图层 1"
     inkscape:groupmode="layer"
     id="layer1"><g
       id="g59"
       transform="matrix(0.05201217,0,0,0.05201217,6.1057137,8.1862005)"><rect
         class="cls-1"
         x="900"
         y="500"
         width="900"
         height="300"
         id="rect13" /><rect
         class="cls-2"
         y="500"
         width="900"
         height="300"
         id="rect15"
         x="0" /><polygon
         class="cls-1"
         points="900,800 80,800 160,1720 900,1720 "
         id="polygon17" /><polygon
         class="cls-3"
         points="900,800 1720,800 1640,1720 900,1720 "
         id="polygon19" /><polygon
         class="cls-3"
         points="900,500 900,290 1640,290 1720,500 "
         id="polygon21" /><polygon
         class="cls-1"
         points="900,500 900,290 160,290 80,500 "
         id="polygon23" /><rect
         class="cls-4"
         x="285"
         y="800"
         width="330"
         height="240"
         id="rect25" /><rect
         class="cls-5"
         x="1185"
         y="800"
         width="330"
         height="240"
         id="rect27" /><path
         class="cls-4"
         d="M 620,0 A 160,160 0 0 0 460,160 v 130 h 120 v -80 a 90,90 0 0 1 90,-90 H 900 V 0 Z"
         id="path29" /><path
         class="cls-5"
         d="m 1180,0 a 160,160 0 0 1 160,160 v 130 h -120 v -80 a 90,90 0 0 0 -90,-90 H 900 V 0 Z"
         id="path31" /><polygon
         class="cls-6"
         points="355,1040 395,1720 545,1720 505,1040 "
         id="polygon33" /><polygon
         class="cls-7"
         points="1445,1040 1405,1720 1255,1720 1295,1040 "
         id="polygon35" /><polygon
         class="cls-6"
         points="380,500 400,290 540,290 520,500 "
         id="polygon37" /><polygon
         class="cls-7"
         points="1420,500 1400,290 1260,290 1280,500 "
         id="polygon39" /></g><g
       id="g5383"
       transform="matrix(1.2912776,0,0,1.2912776,-23.187671,-23.22667)"><path
         id="path2471"
         style="fill:#feffff;fill-opacity:1;stroke:none;stroke-width:0.264583;stroke-opacity:1"
         d="m 77.817468,72.526544 v 0 l 3.67523,3.676261 a 2.4867306,2.4867306 0 0 0 -0.14314,0.467672 2.4867306,2.4867306 0 0 0 -0.0491,0.486275 2.4867306,2.4867306 0 0 0 0.047,0.486792 2.4867306,2.4867306 0 0 0 0.14159,0.468189 2.4867306,2.4867306 0 0 0 0.23048,0.430981 2.4867306,2.4867306 0 0 0 0.31058,0.377755 2.4867306,2.4867306 0 0 0 0.37827,0.310058 2.4867306,2.4867306 0 0 0 0.4315,0.229444 v 8.899716 a 2.4906111,2.4906111 0 0 0 -0.43305,0.23151 2.4906111,2.4906111 0 0 0 -0.37982,0.31161 2.4835556,2.4835556 0 0 0 -0.34675,0.4346 2.4835556,2.4835556 0 0 0 -0.24133,0.50126 2.4835556,2.4835556 0 0 0 -0.12403,0.5426 2.4835556,2.4835556 0 0 0 0,0.55604 2.4835556,2.4835556 0 0 0 0.12403,0.54209 2.4835556,2.4835556 0 0 0 0.24133,0.50126 2.4835556,2.4835556 0 0 0 0.34675,0.43511 2.4835556,2.4835556 0 0 0 0.43511,0.34675 2.4835556,2.4835556 0 0 0 0.50126,0.24133 2.4835556,2.4835556 0 0 0 0.54209,0.12351 2.4835556,2.4835556 0 0 0 0.55604,0 2.4835556,2.4835556 0 0 0 0.5426,-0.12351 2.4835556,2.4835556 0 0 0 0.50074,-0.24133 2.4835556,2.4835556 0 0 0 0.43512,-0.34675 2.4835556,2.4835556 0 0 0 0.15813,-0.17415 2.4835556,2.4835556 0 0 0 0.14159,-0.18862 2.4835556,2.4835556 0 0 0 0.12248,-0.20102 2.4835556,2.4835556 0 0 0 0.10335,-0.21187 2.4835556,2.4835556 0 0 0 0.0827,-0.22066 2.4835556,2.4835556 0 0 0 0.0615,-0.22738 2.4835556,2.4835556 0 0 0 0.0393,-0.23202 2.4835556,2.4835556 0 0 0 0.0176,-0.23513 2.4835556,2.4835556 0 0 0 -0.005,-0.23513 2.4835556,2.4835556 0 0 0 -0.0269,-0.23409 2.4835556,2.4835556 0 0 0 -0.0496,-0.23048 2.4835556,2.4835556 0 0 0 -0.0708,-0.22427 2.4835556,2.4835556 0 0 0 -0.092,-0.21705 2.4835556,2.4835556 0 0 0 -0.11162,-0.20722 2.4835556,2.4835556 0 0 0 -0.13126,-0.19585 2.4835556,2.4835556 0 0 0 -0.14883,-0.18242 2.4835556,2.4835556 0 0 0 -0.16588,-0.16743 2.4835556,2.4835556 0 0 0 -0.18087,-0.1509 2.4835556,2.4835556 0 0 0 -0.19378,-0.13332 2.4835556,2.4835556 0 0 0 -0.20619,-0.11421 v -8.818064 l 3.35122,3.350183 a 2.4849667,2.4849667 0 0 0 -0.14005,0.465605 2.4849667,2.4849667 0 0 0 -0.047,0.483696 2.4849667,2.4849667 0 0 0 0.0481,0.48369 2.4849667,2.4849667 0 0 0 0.14107,0.46457 2.4849667,2.4849667 0 0 0 0.22893,0.42891 2.4849667,2.4849667 0 0 0 0.30799,0.37569 2.4870833,2.4870833 0 0 0 0.43563,0.34675 2.4870833,2.4870833 0 0 0 0.50126,0.24133 2.4870833,2.4870833 0 0 0 0.54261,0.12402 2.4870833,2.4870833 0 0 0 0.55655,0 2.4870833,2.4870833 0 0 0 0.5426,-0.12402 2.4870833,2.4870833 0 0 0 0.50178,-0.24133 2.4870833,2.4870833 0 0 0 0.43512,-0.34675 2.4835556,2.4835556 0 0 0 0.12661,-0.13591 2.4835556,2.4835556 0 0 0 0.11575,-0.14521 2.4835556,2.4835556 0 0 0 0.10439,-0.15348 2.4835556,2.4835556 0 0 0 0.093,-0.16071 2.4835556,2.4835556 0 0 0 0.0806,-0.16743 2.4835556,2.4835556 0 0 0 0.0677,-0.17312 2.4835556,2.4835556 0 0 0 0.0548,-0.17725 2.4835556,2.4835556 0 0 0 0.0413,-0.18138 2.4835556,2.4835556 0 0 0 0.0279,-0.18346 2.4835556,2.4835556 0 0 0 0.0139,-0.18551 2.4835556,2.4835556 0 0 0 0,-0.185523 2.4835556,2.4835556 0 0 0 -0.0139,-0.185001 2.4835556,2.4835556 0 0 0 -0.0279,-0.183968 2.4835556,2.4835556 0 0 0 -0.0413,-0.180868 2.4835556,2.4835556 0 0 0 -0.0548,-0.177767 2.4835556,2.4835556 0 0 0 -0.0677,-0.172599 2.4835556,2.4835556 0 0 0 -0.0806,-0.167432 2.4835556,2.4835556 0 0 0 -0.093,-0.16123 2.4835556,2.4835556 0 0 0 -0.10439,-0.153479 2.4835556,2.4835556 0 0 0 -0.11575,-0.145211 2.4835556,2.4835556 0 0 0 -0.12661,-0.135909 2.4793222,2.4793222 0 0 0 -0.43305,-0.345715 2.4793222,2.4793222 0 0 0 -0.49919,-0.241329 2.4793222,2.4793222 0 0 0 -0.54002,-0.124024 2.4793222,2.4793222 0 0 0 -0.55449,-0.001 2.4793222,2.4793222 0 0 0 -0.54054,0.122473 l -3.59409,-3.593063 a 2.4814389,2.4814389 0 0 0 0.0372,-0.114721 2.4814389,2.4814389 0 0 0 0.031,-0.116789 2.4814389,2.4814389 0 0 0 0.0253,-0.117822 2.4814389,2.4814389 0 0 0 0.0196,-0.119373 2.4814389,2.4814389 0 0 0 0.0139,-0.119889 2.4814389,2.4814389 0 0 0 0.008,-0.120406 2.4814389,2.4814389 0 0 0 0.002,-0.120406 2.4814389,2.4814389 0 0 0 -0.004,-0.120923 2.4814389,2.4814389 0 0 0 -0.009,-0.119889 2.4814389,2.4814389 0 0 0 -0.0155,-0.11989 2.4814389,2.4814389 0 0 0 -0.0212,-0.118856 2.4814389,2.4814389 0 0 0 -0.0269,-0.117822 2.4814389,2.4814389 0 0 0 -0.0326,-0.116272 2.4814389,2.4814389 0 0 0 -0.0387,-0.114205 2.4814389,2.4814389 0 0 0 -0.0434,-0.112654 2.4814389,2.4814389 0 0 0 -0.0496,-0.110071 2.4814389,2.4814389 0 0 0 -0.0543,-0.107487 2.4814389,2.4814389 0 0 0 -0.06,-0.104903 2.4814389,2.4814389 0 0 0 -0.0646,-0.10232 2.4814389,2.4814389 0 0 0 -0.0698,-0.09819 2.4814389,2.4814389 0 0 0 -0.0739,-0.09508 2.4814389,2.4814389 0 0 0 -0.0791,-0.09147 2.4814389,2.4814389 0 0 0 -0.0832,-0.08733 2.4800278,2.4800278 0 0 0 -0.43046,-0.343648 2.4800278,2.4800278 0 0 0 -0.49506,-0.240296 2.4800278,2.4800278 0 0 0 -0.5364,-0.125057 2.4800278,2.4800278 0 0 0 -0.55087,-0.0036 2.4800278,2.4800278 0 0 0 -0.53796,0.118339 l -3.72742,-3.727421 z" /><path
         style="fill:#f03c2e;fill-opacity:1;fill-rule:nonzero;stroke:none;stroke-width:0.352778"
         d="M 99.306568,82.296019 85.153128,68.143633 a 2.0877389,2.0877389 0 0 0 -2.95346,0 l -2.93793,2.939344 3.72745,3.72745 a 2.4800278,2.4800278 0 0 1 2.55058,0.594078 2.4814389,2.4814389 0 0 1 0.58879,2.567164 l 3.59375,3.592689 a 2.4793222,2.4793222 0 0 1 2.56751,0.589845 2.4835556,2.4835556 0 0 1 0,3.512608 2.4870833,2.4870833 0 0 1 -3.51543,0 2.4849667,2.4849667 0 0 1 -0.53904,-2.702278 l -3.35139,-3.35033 v 8.818386 a 2.4835556,2.4835556 0 0 1 0.65617,3.982861 2.4835556,2.4835556 0 0 1 -3.51261,0 2.4835556,2.4835556 0 0 1 0,-3.512961 2.4906111,2.4906111 0 0 1 0.8128,-0.542925 v -8.899525 a 2.4867306,2.4867306 0 0 1 -1.34761,-3.25755 l -3.67524,-3.675945 -9.70562,9.703153 a 2.0902083,2.0902083 0 0 0 0,2.953103 l 14.15415,14.154146 a 2.0902083,2.0902083 0 0 0 2.95275,0 l 14.08782,-14.087824 a 2.0902083,2.0902083 0 0 0 0,-2.953103"
         id="path224"
         clip-path="url(#clipPath239)"
         inkscape:label="path224" /></g></g></svg>
